# xmcd
#
# Track frame offsets:
#	150
#	2573
#	23979
#	48415
#	58948
#	86700
#	98387
#	112200
#	126295
#	146671
#	167386
#	181719
#	192505
#	208795
#	221775
#	234544
#	255775
#	268110
#
# Disc length: 3816
#
# Revision: 1
# Processed by: cddbd v1.5.1PL0 Copyright (c) Steve Scherf et al.
# Submitted via: ExactAudioCopy v0.90a11
# Normalized: r0:DSETVAR1
#
DISCID=fe0ee612
DTITLE=Various Artist - After Midnight - Blues Gratests Ballads
DYEAR=1900
DGENRE=
TTITLE0=Howling Wolf and Eric Clapton - Studio Chat
TTITLE1=John Lee Hooker Feat. Carlos Santana - Chill Out (Things Gonna Change)
TTITLE2=B.B. King - The Thrill Is Gone
TTITLE3=J.J. Cale - After Midnight
TTITLE4=Gary Moore - Still Got The Blues
TTITLE5=Nina Simone - I Put A Spell On You
TTITLE6=Etta James - I Just Want To Make Love To You
TTITLE7=Sonny Boy Williams - Help Me
TTITLE8=The Notting Hillbillies - Your Own Sweet Way
TTITLE9=Buddy Guy - Feels Like Rain
TTITLE10=The Commitments - I Never Loved A Man
TTITLE11=Aretha Franklin - Muddy Water
TTITLE12=Dinah Washington - After You've Gone
TTITLE13=Nina Simone - Feeling Good
TTITLE14=Muddy Waters - I'm Your Hoochie Coochie Man
TTITLE15=Joe Cooker - Don't Let Me Be Misunderstood
TTITLE16=Howlin' Wolf - Spoonful
TTITLE17=Love Sculpture - Summertime
EXTD=
EXTT0=
EXTT1=
EXTT2=
EXTT3=
EXTT4=
EXTT5=
EXTT6=
EXTT7=
EXTT8=
EXTT9=
EXTT10=
EXTT11=
EXTT12=
EXTT13=
EXTT14=
EXTT15=
EXTT16=
EXTT17=
PLAYORDER=
